<mxfile host="Electron" agent="Mozilla/5.0 (Windows NT 10.0; Win64; x64) AppleWebKit/537.36 (KHTML, like Gecko) draw.io/28.1.2 Chrome/138.0.7204.243 Electron/37.4.0 Safari/537.36" version="28.1.2">
  <diagram name="Trang-1" id="F74mULWM_85_3GrQD3yT">
    <mxGraphModel dx="2722" dy="1138" grid="1" gridSize="10" guides="1" tooltips="1" connect="1" arrows="1" fold="1" page="1" pageScale="1" pageWidth="827" pageHeight="1169" math="0" shadow="0">
      <root>
        <mxCell id="0" />
        <mxCell id="1" parent="0" />
        <mxCell id="JbsuWUUvnmCmP8ZtiZNg-17" value="" style="rounded=0;whiteSpace=wrap;html=1;" parent="1" vertex="1">
          <mxGeometry x="90" y="640" width="580" height="220" as="geometry" />
        </mxCell>
        <mxCell id="JbsuWUUvnmCmP8ZtiZNg-40" style="edgeStyle=orthogonalEdgeStyle;rounded=0;orthogonalLoop=1;jettySize=auto;html=1;exitX=0.5;exitY=1;exitDx=0;exitDy=0;entryX=0.5;entryY=0;entryDx=0;entryDy=0;" parent="1" source="1WGyyfWfhYwLP3OXtk0i-1" target="JbsuWUUvnmCmP8ZtiZNg-2" edge="1">
          <mxGeometry relative="1" as="geometry" />
        </mxCell>
        <mxCell id="1WGyyfWfhYwLP3OXtk0i-1" value="double SQRT(Double n)" style="ellipse;whiteSpace=wrap;html=1;" parent="1" vertex="1">
          <mxGeometry x="270" y="90" width="210" height="80" as="geometry" />
        </mxCell>
        <mxCell id="JbsuWUUvnmCmP8ZtiZNg-1" value="low &amp;lt;- 0 , high &amp;lt;- n, epsi &amp;lt;- 0,01" style="rounded=0;whiteSpace=wrap;html=1;" parent="1" vertex="1">
          <mxGeometry x="270" y="460" width="230" height="30" as="geometry" />
        </mxCell>
        <mxCell id="JbsuWUUvnmCmP8ZtiZNg-3" style="edgeStyle=orthogonalEdgeStyle;rounded=0;orthogonalLoop=1;jettySize=auto;html=1;exitX=1;exitY=0.5;exitDx=0;exitDy=0;" parent="1" source="JbsuWUUvnmCmP8ZtiZNg-2" target="JbsuWUUvnmCmP8ZtiZNg-6" edge="1">
          <mxGeometry relative="1" as="geometry" />
        </mxCell>
        <mxCell id="JbsuWUUvnmCmP8ZtiZNg-7" value="TRUE" style="edgeLabel;html=1;align=center;verticalAlign=middle;resizable=0;points=[];" parent="JbsuWUUvnmCmP8ZtiZNg-3" vertex="1" connectable="0">
          <mxGeometry x="-0.3174" y="-2" relative="1" as="geometry">
            <mxPoint as="offset" />
          </mxGeometry>
        </mxCell>
        <mxCell id="JbsuWUUvnmCmP8ZtiZNg-4" style="edgeStyle=orthogonalEdgeStyle;rounded=0;orthogonalLoop=1;jettySize=auto;html=1;exitX=0;exitY=0.5;exitDx=0;exitDy=0;" parent="1" source="JbsuWUUvnmCmP8ZtiZNg-2" target="JbsuWUUvnmCmP8ZtiZNg-5" edge="1">
          <mxGeometry relative="1" as="geometry">
            <mxPoint x="-20" y="230" as="targetPoint" />
          </mxGeometry>
        </mxCell>
        <mxCell id="JbsuWUUvnmCmP8ZtiZNg-8" value="FALSE" style="edgeLabel;html=1;align=center;verticalAlign=middle;resizable=0;points=[];" parent="JbsuWUUvnmCmP8ZtiZNg-4" vertex="1" connectable="0">
          <mxGeometry x="-0.6175" y="-2" relative="1" as="geometry">
            <mxPoint as="offset" />
          </mxGeometry>
        </mxCell>
        <mxCell id="O0q2Jy5pVG4FynzwEjHW-5" style="edgeStyle=orthogonalEdgeStyle;rounded=0;orthogonalLoop=1;jettySize=auto;html=1;exitX=0;exitY=0.5;exitDx=0;exitDy=0;" edge="1" parent="1" source="JbsuWUUvnmCmP8ZtiZNg-2" target="O0q2Jy5pVG4FynzwEjHW-2">
          <mxGeometry relative="1" as="geometry" />
        </mxCell>
        <mxCell id="JbsuWUUvnmCmP8ZtiZNg-2" value="n&amp;lt;0" style="rhombus;whiteSpace=wrap;html=1;" parent="1" vertex="1">
          <mxGeometry x="334" y="190" width="80" height="80" as="geometry" />
        </mxCell>
        <mxCell id="JbsuWUUvnmCmP8ZtiZNg-5" value="return" style="ellipse;whiteSpace=wrap;html=1;" parent="1" vertex="1">
          <mxGeometry x="-200" y="900" width="120" height="80" as="geometry" />
        </mxCell>
        <mxCell id="JbsuWUUvnmCmP8ZtiZNg-11" style="edgeStyle=orthogonalEdgeStyle;rounded=0;orthogonalLoop=1;jettySize=auto;html=1;exitX=0;exitY=0.5;exitDx=0;exitDy=0;entryX=1;entryY=0.5;entryDx=0;entryDy=0;" parent="1" source="JbsuWUUvnmCmP8ZtiZNg-6" target="JbsuWUUvnmCmP8ZtiZNg-13" edge="1">
          <mxGeometry relative="1" as="geometry">
            <mxPoint x="98" y="350" as="targetPoint" />
          </mxGeometry>
        </mxCell>
        <mxCell id="JbsuWUUvnmCmP8ZtiZNg-12" value="TRUE" style="edgeLabel;html=1;align=center;verticalAlign=middle;resizable=0;points=[];" parent="JbsuWUUvnmCmP8ZtiZNg-11" vertex="1" connectable="0">
          <mxGeometry x="-0.5129" y="1" relative="1" as="geometry">
            <mxPoint as="offset" />
          </mxGeometry>
        </mxCell>
        <mxCell id="JbsuWUUvnmCmP8ZtiZNg-6" value="n=1||n=0" style="rhombus;whiteSpace=wrap;html=1;" parent="1" vertex="1">
          <mxGeometry x="334" y="310" width="80" height="80" as="geometry" />
        </mxCell>
        <mxCell id="JbsuWUUvnmCmP8ZtiZNg-9" style="edgeStyle=orthogonalEdgeStyle;rounded=0;orthogonalLoop=1;jettySize=auto;html=1;exitX=0.5;exitY=1;exitDx=0;exitDy=0;entryX=0.451;entryY=0.049;entryDx=0;entryDy=0;entryPerimeter=0;" parent="1" source="JbsuWUUvnmCmP8ZtiZNg-6" target="JbsuWUUvnmCmP8ZtiZNg-1" edge="1">
          <mxGeometry relative="1" as="geometry" />
        </mxCell>
        <mxCell id="JbsuWUUvnmCmP8ZtiZNg-10" value="FALSE" style="edgeLabel;html=1;align=center;verticalAlign=middle;resizable=0;points=[];" parent="JbsuWUUvnmCmP8ZtiZNg-9" vertex="1" connectable="0">
          <mxGeometry x="-0.1015" y="-2" relative="1" as="geometry">
            <mxPoint as="offset" />
          </mxGeometry>
        </mxCell>
        <mxCell id="JbsuWUUvnmCmP8ZtiZNg-14" style="edgeStyle=orthogonalEdgeStyle;rounded=0;orthogonalLoop=1;jettySize=auto;html=1;" parent="1" source="JbsuWUUvnmCmP8ZtiZNg-13" edge="1">
          <mxGeometry relative="1" as="geometry">
            <mxPoint x="-140" y="350" as="targetPoint" />
          </mxGeometry>
        </mxCell>
        <mxCell id="JbsuWUUvnmCmP8ZtiZNg-13" value="n" style="rounded=0;whiteSpace=wrap;html=1;" parent="1" vertex="1">
          <mxGeometry x="-20" y="330" width="80" height="40" as="geometry" />
        </mxCell>
        <mxCell id="JbsuWUUvnmCmP8ZtiZNg-21" style="edgeStyle=orthogonalEdgeStyle;rounded=0;orthogonalLoop=1;jettySize=auto;html=1;exitX=0.5;exitY=1;exitDx=0;exitDy=0;entryX=0.5;entryY=0;entryDx=0;entryDy=0;" parent="1" source="JbsuWUUvnmCmP8ZtiZNg-15" target="JbsuWUUvnmCmP8ZtiZNg-19" edge="1">
          <mxGeometry relative="1" as="geometry" />
        </mxCell>
        <mxCell id="JbsuWUUvnmCmP8ZtiZNg-42" value="FAlSE" style="edgeLabel;html=1;align=center;verticalAlign=middle;resizable=0;points=[];" parent="JbsuWUUvnmCmP8ZtiZNg-21" vertex="1" connectable="0">
          <mxGeometry x="-0.7086" y="-1" relative="1" as="geometry">
            <mxPoint as="offset" />
          </mxGeometry>
        </mxCell>
        <mxCell id="JbsuWUUvnmCmP8ZtiZNg-29" style="edgeStyle=orthogonalEdgeStyle;rounded=0;orthogonalLoop=1;jettySize=auto;html=1;" parent="1" source="JbsuWUUvnmCmP8ZtiZNg-15" target="JbsuWUUvnmCmP8ZtiZNg-30" edge="1">
          <mxGeometry relative="1" as="geometry">
            <mxPoint x="60" y="580" as="targetPoint" />
          </mxGeometry>
        </mxCell>
        <mxCell id="JbsuWUUvnmCmP8ZtiZNg-41" value="TRUE" style="edgeLabel;html=1;align=center;verticalAlign=middle;resizable=0;points=[];" parent="JbsuWUUvnmCmP8ZtiZNg-29" vertex="1" connectable="0">
          <mxGeometry x="-0.1156" y="-2" relative="1" as="geometry">
            <mxPoint as="offset" />
          </mxGeometry>
        </mxCell>
        <mxCell id="JbsuWUUvnmCmP8ZtiZNg-15" value="high - low &amp;lt; epsi" style="rhombus;whiteSpace=wrap;html=1;" parent="1" vertex="1">
          <mxGeometry x="308" y="540" width="114" height="80" as="geometry" />
        </mxCell>
        <mxCell id="JbsuWUUvnmCmP8ZtiZNg-18" style="edgeStyle=orthogonalEdgeStyle;rounded=0;orthogonalLoop=1;jettySize=auto;html=1;exitX=0.5;exitY=1;exitDx=0;exitDy=0;entryX=0.476;entryY=0.08;entryDx=0;entryDy=0;entryPerimeter=0;" parent="1" source="JbsuWUUvnmCmP8ZtiZNg-1" target="JbsuWUUvnmCmP8ZtiZNg-15" edge="1">
          <mxGeometry relative="1" as="geometry" />
        </mxCell>
        <mxCell id="JbsuWUUvnmCmP8ZtiZNg-28" style="edgeStyle=orthogonalEdgeStyle;rounded=0;orthogonalLoop=1;jettySize=auto;html=1;exitX=0.5;exitY=1;exitDx=0;exitDy=0;" parent="1" source="JbsuWUUvnmCmP8ZtiZNg-19" target="JbsuWUUvnmCmP8ZtiZNg-22" edge="1">
          <mxGeometry relative="1" as="geometry" />
        </mxCell>
        <mxCell id="JbsuWUUvnmCmP8ZtiZNg-19" value="mid &amp;lt;- low + (high - low)/2" style="rounded=0;whiteSpace=wrap;html=1;" parent="1" vertex="1">
          <mxGeometry x="285" y="670" width="160" height="20" as="geometry" />
        </mxCell>
        <mxCell id="JbsuWUUvnmCmP8ZtiZNg-33" value="" style="edgeStyle=orthogonalEdgeStyle;rounded=0;orthogonalLoop=1;jettySize=auto;html=1;" parent="1" source="JbsuWUUvnmCmP8ZtiZNg-22" target="JbsuWUUvnmCmP8ZtiZNg-32" edge="1">
          <mxGeometry relative="1" as="geometry" />
        </mxCell>
        <mxCell id="JbsuWUUvnmCmP8ZtiZNg-38" value="TRUE" style="edgeLabel;html=1;align=center;verticalAlign=middle;resizable=0;points=[];" parent="JbsuWUUvnmCmP8ZtiZNg-33" vertex="1" connectable="0">
          <mxGeometry x="-0.0611" y="-2" relative="1" as="geometry">
            <mxPoint as="offset" />
          </mxGeometry>
        </mxCell>
        <mxCell id="JbsuWUUvnmCmP8ZtiZNg-35" value="" style="edgeStyle=orthogonalEdgeStyle;rounded=0;orthogonalLoop=1;jettySize=auto;html=1;" parent="1" source="JbsuWUUvnmCmP8ZtiZNg-22" target="JbsuWUUvnmCmP8ZtiZNg-34" edge="1">
          <mxGeometry relative="1" as="geometry" />
        </mxCell>
        <mxCell id="JbsuWUUvnmCmP8ZtiZNg-39" value="FALSE" style="edgeLabel;html=1;align=center;verticalAlign=middle;resizable=0;points=[];" parent="JbsuWUUvnmCmP8ZtiZNg-35" vertex="1" connectable="0">
          <mxGeometry x="-0.1804" y="-3" relative="1" as="geometry">
            <mxPoint as="offset" />
          </mxGeometry>
        </mxCell>
        <mxCell id="JbsuWUUvnmCmP8ZtiZNg-22" value="mid*mid &amp;lt; num" style="rhombus;whiteSpace=wrap;html=1;" parent="1" vertex="1">
          <mxGeometry x="310" y="720" width="110" height="80" as="geometry" />
        </mxCell>
        <mxCell id="JbsuWUUvnmCmP8ZtiZNg-31" style="edgeStyle=orthogonalEdgeStyle;rounded=0;orthogonalLoop=1;jettySize=auto;html=1;exitX=0;exitY=0.5;exitDx=0;exitDy=0;" parent="1" source="JbsuWUUvnmCmP8ZtiZNg-30" edge="1">
          <mxGeometry relative="1" as="geometry">
            <mxPoint x="-140" y="579.9473684210527" as="targetPoint" />
          </mxGeometry>
        </mxCell>
        <mxCell id="JbsuWUUvnmCmP8ZtiZNg-30" value="mid" style="rounded=0;whiteSpace=wrap;html=1;" parent="1" vertex="1">
          <mxGeometry x="-30" y="550" width="80" height="60" as="geometry" />
        </mxCell>
        <mxCell id="JbsuWUUvnmCmP8ZtiZNg-37" style="edgeStyle=orthogonalEdgeStyle;rounded=0;orthogonalLoop=1;jettySize=auto;html=1;entryX=0;entryY=1;entryDx=0;entryDy=0;" parent="1" source="JbsuWUUvnmCmP8ZtiZNg-32" target="JbsuWUUvnmCmP8ZtiZNg-15" edge="1">
          <mxGeometry relative="1" as="geometry">
            <Array as="points">
              <mxPoint x="200" y="600" />
            </Array>
          </mxGeometry>
        </mxCell>
        <mxCell id="JbsuWUUvnmCmP8ZtiZNg-32" value="low = mid&amp;nbsp;" style="whiteSpace=wrap;html=1;" parent="1" vertex="1">
          <mxGeometry x="130" y="730" width="120" height="60" as="geometry" />
        </mxCell>
        <mxCell id="JbsuWUUvnmCmP8ZtiZNg-36" style="edgeStyle=orthogonalEdgeStyle;rounded=0;orthogonalLoop=1;jettySize=auto;html=1;exitX=0.5;exitY=0;exitDx=0;exitDy=0;entryX=1;entryY=0.5;entryDx=0;entryDy=0;" parent="1" source="JbsuWUUvnmCmP8ZtiZNg-34" target="JbsuWUUvnmCmP8ZtiZNg-15" edge="1">
          <mxGeometry relative="1" as="geometry" />
        </mxCell>
        <mxCell id="JbsuWUUvnmCmP8ZtiZNg-34" value="high = mid&amp;nbsp;" style="whiteSpace=wrap;html=1;" parent="1" vertex="1">
          <mxGeometry x="495" y="730" width="120" height="60" as="geometry" />
        </mxCell>
        <mxCell id="O0q2Jy5pVG4FynzwEjHW-2" value="-1" style="rounded=0;whiteSpace=wrap;html=1;" vertex="1" parent="1">
          <mxGeometry x="-60" y="200" width="120" height="60" as="geometry" />
        </mxCell>
        <mxCell id="O0q2Jy5pVG4FynzwEjHW-3" value="lỗi số âm" style="text;html=1;align=center;verticalAlign=middle;whiteSpace=wrap;rounded=0;" vertex="1" parent="1">
          <mxGeometry x="-30" y="150" width="60" height="30" as="geometry" />
        </mxCell>
      </root>
    </mxGraphModel>
  </diagram>
</mxfile>
